<?xml version="1.0" encoding="UTF-8" standalone="no"?>
<!-- Created with Inkscape (http://www.inkscape.org/) -->

<svg
   xmlns:dc="http://purl.org/dc/elements/1.1/"
   xmlns:cc="http://creativecommons.org/ns#"
   xmlns:rdf="http://www.w3.org/1999/02/22-rdf-syntax-ns#"
   xmlns:svg="http://www.w3.org/2000/svg"
   xmlns="http://www.w3.org/2000/svg"
   xmlns:sodipodi="http://sodipodi.sourceforge.net/DTD/sodipodi-0.dtd"
   xmlns:inkscape="http://www.inkscape.org/namespaces/inkscape"
   id="svg2"
   version="1.1"
   inkscape:version="0.91 r13725"
   xml:space="preserve"
   width="3721.3586"
   height="582.35626"
   viewBox="0 0 3721.3586 582.35626"
   sodipodi:docname="invasao-dos-hamburgueres.svg"><metadata
     id="metadata8"><rdf:RDF><cc:Work
         rdf:about=""><dc:format>image/svg+xml</dc:format><dc:type
           rdf:resource="http://purl.org/dc/dcmitype/StillImage" /><dc:title></dc:title></cc:Work></rdf:RDF></metadata><defs
     id="defs6"><clipPath
       clipPathUnits="userSpaceOnUse"
       id="clipPath16"><path
         d="m 0,513.014 1226.948,0 L 1226.948,0 0,0 0,513.014 Z"
         id="path18"
         inkscape:connector-curvature="0" /></clipPath></defs><sodipodi:namedview
     pagecolor="#ffffff"
     bordercolor="#666666"
     borderopacity="1"
     objecttolerance="10"
     gridtolerance="10"
     guidetolerance="10"
     inkscape:pageopacity="0"
     inkscape:pageshadow="2"
     inkscape:window-width="1920"
     inkscape:window-height="1016"
     id="namedview4"
     showgrid="false"
     inkscape:zoom="0.17441624"
     inkscape:cx="1651.239"
     inkscape:cy="474.16825"
     inkscape:window-x="0"
     inkscape:window-y="27"
     inkscape:window-maximized="1"
     inkscape:current-layer="g10"
     fit-margin-top="60"
     fit-margin-left="60"
     fit-margin-right="60"
     fit-margin-bottom="60" /><g
     id="g10"
     inkscape:groupmode="layer"
     inkscape:label="PORTO_Porto_lazer_logo_simples_A4_azul"
     transform="matrix(1.25,0,0,-1.25,2225.8375,-216.66668)"><g
       id="g12"
       transform="translate(321.07103,-1747.5437)"><g
         id="g14"
         clip-path="url(#clipPath16)"><g
           id="g20"
           transform="translate(798.1865,260.3589)"><path
             d="M 0,0 165.289,-165.294 330.592,0.002 c -1.178,15.868 -10.104,74.016 -77.699,74.016 -76.612,0 -77.852,-74.713 -77.87,-77.894 l -19.468,0.024 c -0.01,3.157 -1.25,77.87 -77.871,77.87 C 10.119,74.018 1.178,15.903 0,0 m 170.703,-187.418 -12.135,1.31 -178.222,178.222 0,4.034 c 0,0.973 1.117,97.338 97.338,97.338 52.154,0 76.369,-28.307 87.605,-54.387 11.244,26.08 35.455,54.387 87.604,54.387 96.23,0 97.337,-96.365 97.337,-97.338 l 0,-4.034 -179.527,-179.532 z"
             style="fill:#000f9f;fill-opacity:1;fill-rule:nonzero;stroke:none"
             id="path22"
             inkscape:connector-curvature="0" /></g><path
           d="m 97.999,91.032 680.533,0 0,330.949 -680.533,0 0,-330.949 z m 700.002,-19.468 -719.471,0 0,369.885 719.471,0 0,-369.885 z"
           style="fill:#000f9f;fill-opacity:1;fill-rule:nonzero;stroke:none"
           id="path24"
           inkscape:connector-curvature="0" /><g
           id="g26"
           transform="translate(221.4971,299.1409)"><path
             d="m 0,0 0,-38.461 9.881,0 c 14.39,0 25.08,4.933 25.08,19.741 C 34.961,-4.12 24.271,0 9.881,0 L 0,0 Z m 0,-113.329 -35.176,0 0,143.974 52.039,0 c 36.002,0 54.301,-22.21 54.301,-49.365 0,-27.15 -18.299,-50.389 -54.301,-50.389 l -16.863,0 0,-44.22 z"
             style="fill:#000f9f;fill-opacity:1;fill-rule:nonzero;stroke:none"
             id="path28"
             inkscape:connector-curvature="0" /></g><g
           id="g30"
           transform="translate(325.5693,233.7312)"><path
             d="m 0,0 c 0,-11.722 7.609,-20.565 18.512,-20.565 10.689,0 18.517,8.843 18.517,20.565 0,11.93 -7.828,20.371 -18.517,20.371 C 7.609,20.371 0,11.93 0,0 m -32.908,0 c 0,29.206 22.836,50.19 51.42,50.19 28.593,0 51.412,-20.984 51.412,-50.19 0,-29.201 -22.819,-50.39 -51.412,-50.39 -28.584,0 -51.42,21.189 -51.42,50.39"
             style="fill:#000f9f;fill-opacity:1;fill-rule:nonzero;stroke:none"
             id="path32"
             inkscape:connector-curvature="0" /></g><g
           id="g34"
           transform="translate(467.3076,254.2444)"><path
             d="m 0,0 -11.93,0 c -14.191,0 -17.894,-12.286 -17.894,-24.42 l 0,-44.013 -32.908,0 0,95.638 31.673,0 0,-15.217 c 1.977,10.886 8.963,15.569 15.332,15.569 C -13.264,27.557 0,27.205 0,27.205 L 0,0 Z"
             style="fill:#000f9f;fill-opacity:1;fill-rule:nonzero;stroke:none"
             id="path36"
             inkscape:connector-curvature="0" /></g><g
           id="g38"
           transform="translate(524.1572,315.594)"><path
             d="m 0,0 0,-34.145 19.125,0 0,-26.958 -19.125,0 0,-34.743 c 0,-5.557 4.725,-6.378 8.426,-6.378 6.174,0 10.699,0.616 10.699,0.616 l 0,-28.174 c 0,0 -15.428,-1.235 -23.451,-1.235 -15.428,0 -28.598,4.321 -28.598,24.064 l 0,45.808 -14.178,0 0,27 14.178,0 0,34.145 L 0,0 Z"
             style="fill:#000f9f;fill-opacity:1;fill-rule:nonzero;stroke:none"
             id="path40"
             inkscape:connector-curvature="0" /></g><g
           id="g42"
           transform="translate(583.1338,233.7312)"><path
             d="m 0,0 c 0,-11.722 7.609,-20.565 18.514,-20.565 10.689,0 18.507,8.843 18.507,20.565 0,11.93 -7.818,20.371 -18.507,20.371 C 7.609,20.371 0,11.93 0,0 m -32.902,0 c 0,29.206 22.822,50.19 51.416,50.19 28.582,0 51.41,-20.984 51.41,-50.19 0,-29.201 -22.828,-50.39 -51.41,-50.39 -28.594,0 -51.416,21.189 -51.416,50.39"
             style="fill:#000f9f;fill-opacity:1;fill-rule:nonzero;stroke:none"
             id="path44"
             inkscape:connector-curvature="0" /></g><g
           id="g46"
           transform="translate(678.999,224.6804)"><path
             d="m 0,0 c 11.521,0 20.775,-9.252 20.775,-20.768 0,-11.312 -9.254,-20.571 -20.775,-20.571 -11.307,0 -20.561,9.259 -20.561,20.571 C -20.561,-9.252 -11.307,0 0,0"
             style="fill:#000f9f;fill-opacity:1;fill-rule:nonzero;stroke:none"
             id="path48"
             inkscape:connector-curvature="0" /></g><path
           d="m 798.001,91.032 330.949,0 0,330.949 -330.949,0 0,-330.949 z m 350.416,-19.468 -369.885,0 0,369.885 369.885,0 0,-369.885 z"
           style="fill:#000f9f;fill-opacity:1;fill-rule:nonzero;stroke:none"
           id="path50"
           inkscape:connector-curvature="0" /></g></g><path
       style="color:#000000;clip-rule:nonzero;display:inline;overflow:visible;visibility:visible;opacity:1;isolation:auto;mix-blend-mode:normal;color-interpolation:sRGB;color-interpolation-filters:linearRGB;solid-color:#000000;solid-opacity:1;fill:none;fill-opacity:1;fill-rule:nonzero;stroke:#000f9f;stroke-width:24;stroke-linecap:butt;stroke-linejoin:miter;stroke-miterlimit:4;stroke-dasharray:none;stroke-dashoffset:0;stroke-opacity:1;marker:none;color-rendering:auto;image-rendering:auto;shape-rendering:auto;text-rendering:auto;enable-background:accumulate"
       d="m 36.59827,-1506.8918 c 1e-5,-69.1416 -56.05035,-125.1919 -125.19196,-125.1919 -69.14161,0 -125.19197,56.0503 -125.19196,125.1919"
       id="path4172"
       inkscape:connector-curvature="0" /><path
       style="color:#000000;clip-rule:nonzero;display:inline;overflow:visible;visibility:visible;opacity:1;isolation:auto;mix-blend-mode:normal;color-interpolation:sRGB;color-interpolation-filters:linearRGB;solid-color:#000000;solid-opacity:1;fill:none;fill-opacity:1;fill-rule:nonzero;stroke:#000f9f;stroke-width:24;stroke-linecap:butt;stroke-linejoin:miter;stroke-miterlimit:4;stroke-dasharray:none;stroke-dashoffset:0;stroke-opacity:1;marker:none;color-rendering:auto;image-rendering:auto;shape-rendering:auto;text-rendering:auto;enable-background:accumulate"
       d="m -645.78565,-1452.4918 c 0,69.1416 56.05035,125.192 125.19196,125.192 69.14161,0 125.19196,-56.0504 125.19196,-125.192 z"
       id="path4167"
       inkscape:connector-curvature="0"
       sodipodi:nodetypes="cscc" /><path
       style="color:#000000;clip-rule:nonzero;display:inline;overflow:visible;visibility:visible;opacity:1;isolation:auto;mix-blend-mode:normal;color-interpolation:sRGB;color-interpolation-filters:linearRGB;solid-color:#000000;solid-opacity:1;fill:none;fill-opacity:1;fill-rule:nonzero;stroke:#000f9f;stroke-width:24;stroke-linecap:butt;stroke-linejoin:miter;stroke-miterlimit:4;stroke-dasharray:none;stroke-dashoffset:0;stroke-opacity:1;marker:none;color-rendering:auto;image-rendering:auto;shape-rendering:auto;text-rendering:auto;enable-background:accumulate"
       d="m -395.40172,-1544.5455 0,-22.9337 c 0,-27.9515 -22.50249,-50.454 -50.45402,-50.454 l -149.84283,0 c -27.95153,0 -50.45402,22.5025 -50.45402,50.454 l 0,22.9337 z"
       id="rect4174"
       inkscape:connector-curvature="0"
       sodipodi:nodetypes="csssscc" /><rect
       ry="50.454018"
       rx="50.454018"
       transform="scale(1,-1)"
       y="1315.209"
       x="-155.37259"
       height="123.84169"
       width="250.75087"
       id="rect4209"
       style="color:#000000;clip-rule:nonzero;display:inline;overflow:visible;visibility:visible;opacity:1;isolation:auto;mix-blend-mode:normal;color-interpolation:sRGB;color-interpolation-filters:linearRGB;solid-color:#000000;solid-opacity:1;fill:none;fill-opacity:1;fill-rule:nonzero;stroke:#000f9f;stroke-width:24;stroke-linecap:butt;stroke-linejoin:miter;stroke-miterlimit:4;stroke-dasharray:none;stroke-dashoffset:0;stroke-opacity:1;marker:none;color-rendering:auto;image-rendering:auto;shape-rendering:auto;text-rendering:auto;enable-background:accumulate" /><path
       style="color:#000000;clip-rule:nonzero;display:inline;overflow:visible;visibility:visible;opacity:1;isolation:auto;mix-blend-mode:normal;color-interpolation:sRGB;color-interpolation-filters:linearRGB;solid-color:#000000;solid-opacity:1;fill:none;fill-opacity:1;fill-rule:nonzero;stroke:#000f9f;stroke-width:24;stroke-linecap:butt;stroke-linejoin:miter;stroke-miterlimit:4;stroke-dasharray:none;stroke-dashoffset:0;stroke-opacity:1;marker:none;color-rendering:auto;image-rendering:auto;shape-rendering:auto;text-rendering:auto;enable-background:accumulate"
       d="m -697.18276,-1495.4249 353.17813,0"
       id="path4212"
       inkscape:connector-curvature="0" /><g
       id="g4263"
       transform="translate(0,-640)"><path
         sodipodi:nodetypes="ccccccccc"
         style="color:#000000;clip-rule:nonzero;display:inline;overflow:visible;visibility:visible;opacity:1;isolation:auto;mix-blend-mode:normal;color-interpolation:sRGB;color-interpolation-filters:linearRGB;solid-color:#000000;solid-opacity:1;fill:none;fill-opacity:1;fill-rule:nonzero;stroke:#000f9f;stroke-width:24;stroke-linecap:butt;stroke-linejoin:miter;stroke-miterlimit:4;stroke-dasharray:none;stroke-dashoffset:0;stroke-opacity:1;marker:none;color-rendering:auto;image-rendering:auto;shape-rendering:auto;text-rendering:auto;enable-background:accumulate"
         d="m -1265.9371,-852.1187 44.1472,32 44.1473,-32 44.1473,32 44.1472,-32 44.1473,32 44.1473,-32 44.14721,32 44.14727,-32"
         id="path4219"
         inkscape:connector-curvature="0" /><path
         style="color:#000000;clip-rule:nonzero;display:inline;overflow:visible;visibility:visible;opacity:1;isolation:auto;mix-blend-mode:normal;color-interpolation:sRGB;color-interpolation-filters:linearRGB;solid-color:#000000;solid-opacity:1;fill:none;fill-opacity:1;fill-rule:nonzero;stroke:#000f9f;stroke-width:24;stroke-linecap:butt;stroke-linejoin:miter;stroke-miterlimit:4;stroke-dasharray:none;stroke-dashoffset:0;stroke-opacity:1;marker:none;color-rendering:auto;image-rendering:auto;shape-rendering:auto;text-rendering:auto;enable-background:accumulate"
         d="m -1214.54,-812.49191 c 0,69.14161 56.0503,125.19196 125.1919,125.19196 69.1416,0 125.19198,-56.05035 125.19198,-125.19196 z"
         id="path4221"
         inkscape:connector-curvature="0"
         sodipodi:nodetypes="cscc" /><path
         style="color:#000000;clip-rule:nonzero;display:inline;overflow:visible;visibility:visible;opacity:1;isolation:auto;mix-blend-mode:normal;color-interpolation:sRGB;color-interpolation-filters:linearRGB;solid-color:#000000;solid-opacity:1;fill:none;fill-opacity:1;fill-rule:nonzero;stroke:#000f9f;stroke-width:24;stroke-linecap:butt;stroke-linejoin:miter;stroke-miterlimit:4;stroke-dasharray:none;stroke-dashoffset:0;stroke-opacity:1;marker:none;color-rendering:auto;image-rendering:auto;shape-rendering:auto;text-rendering:auto;enable-background:accumulate"
         d="m -964.15611,-904.54555 0,-22.93365 c 0,-27.95153 -22.50249,-50.45402 -50.45399,-50.45402 l -149.8429,0 c -27.9515,0 -50.454,22.50249 -50.454,50.45402 l 0,22.93365 z"
         id="path4223"
         inkscape:connector-curvature="0"
         sodipodi:nodetypes="csssscc" /><path
         style="color:#000000;clip-rule:nonzero;display:inline;overflow:visible;visibility:visible;opacity:1;isolation:auto;mix-blend-mode:normal;color-interpolation:sRGB;color-interpolation-filters:linearRGB;solid-color:#000000;solid-opacity:1;fill:none;fill-opacity:1;fill-rule:nonzero;stroke:#000f9f;stroke-width:24;stroke-linecap:butt;stroke-linejoin:miter;stroke-miterlimit:4;stroke-dasharray:none;stroke-dashoffset:0;stroke-opacity:1;marker:none;color-rendering:auto;image-rendering:auto;shape-rendering:auto;text-rendering:auto;enable-background:accumulate"
         d="m -1226.7235,-866.89177 274.75086,0"
         id="path4225"
         inkscape:connector-curvature="0" /><circle
         transform="scale(1,-1)"
         r="11.00815"
         cy="751.9953"
         cx="-1153.1307"
         id="path4241"
         style="color:#000000;clip-rule:nonzero;display:inline;overflow:visible;visibility:visible;opacity:1;isolation:auto;mix-blend-mode:normal;color-interpolation:sRGB;color-interpolation-filters:linearRGB;solid-color:#000000;solid-opacity:1;fill:#000f9f;fill-opacity:1;fill-rule:nonzero;stroke:none;stroke-width:24;stroke-linecap:butt;stroke-linejoin:miter;stroke-miterlimit:4;stroke-dasharray:none;stroke-dashoffset:0;stroke-opacity:1;marker:none;color-rendering:auto;image-rendering:auto;shape-rendering:auto;text-rendering:auto;enable-background:accumulate" /><circle
         style="color:#000000;clip-rule:nonzero;display:inline;overflow:visible;visibility:visible;opacity:1;isolation:auto;mix-blend-mode:normal;color-interpolation:sRGB;color-interpolation-filters:linearRGB;solid-color:#000000;solid-opacity:1;fill:#000f9f;fill-opacity:1;fill-rule:nonzero;stroke:none;stroke-width:24;stroke-linecap:butt;stroke-linejoin:miter;stroke-miterlimit:4;stroke-dasharray:none;stroke-dashoffset:0;stroke-opacity:1;marker:none;color-rendering:auto;image-rendering:auto;shape-rendering:auto;text-rendering:auto;enable-background:accumulate"
         id="circle4243"
         cx="-1099.3845"
         cy="753.59668"
         r="11.00815"
         transform="scale(1,-1)" /><circle
         transform="scale(1,-1)"
         r="11.00815"
         cy="747.67535"
         cx="-1068.9799"
         id="circle4245"
         style="color:#000000;clip-rule:nonzero;display:inline;overflow:visible;visibility:visible;opacity:1;isolation:auto;mix-blend-mode:normal;color-interpolation:sRGB;color-interpolation-filters:linearRGB;solid-color:#000000;solid-opacity:1;fill:#000f9f;fill-opacity:1;fill-rule:nonzero;stroke:none;stroke-width:24;stroke-linecap:butt;stroke-linejoin:miter;stroke-miterlimit:4;stroke-dasharray:none;stroke-dashoffset:0;stroke-opacity:1;marker:none;color-rendering:auto;image-rendering:auto;shape-rendering:auto;text-rendering:auto;enable-background:accumulate" /><circle
         style="color:#000000;clip-rule:nonzero;display:inline;overflow:visible;visibility:visible;opacity:1;isolation:auto;mix-blend-mode:normal;color-interpolation:sRGB;color-interpolation-filters:linearRGB;solid-color:#000000;solid-opacity:1;fill:#000f9f;fill-opacity:1;fill-rule:nonzero;stroke:none;stroke-width:24;stroke-linecap:butt;stroke-linejoin:miter;stroke-miterlimit:4;stroke-dasharray:none;stroke-dashoffset:0;stroke-opacity:1;marker:none;color-rendering:auto;image-rendering:auto;shape-rendering:auto;text-rendering:auto;enable-background:accumulate"
         id="circle4247"
         cx="-1102.3448"
         cy="715.64612"
         r="11.00815"
         transform="scale(1,-1)" /><circle
         transform="scale(1,-1)"
         r="11.00815"
         cy="742.29761"
         cx="-1008.962"
         id="circle4249"
         style="color:#000000;clip-rule:nonzero;display:inline;overflow:visible;visibility:visible;opacity:1;isolation:auto;mix-blend-mode:normal;color-interpolation:sRGB;color-interpolation-filters:linearRGB;solid-color:#000000;solid-opacity:1;fill:#000f9f;fill-opacity:1;fill-rule:nonzero;stroke:none;stroke-width:24;stroke-linecap:butt;stroke-linejoin:miter;stroke-miterlimit:4;stroke-dasharray:none;stroke-dashoffset:0;stroke-opacity:1;marker:none;color-rendering:auto;image-rendering:auto;shape-rendering:auto;text-rendering:auto;enable-background:accumulate" /><circle
         transform="scale(1,-1)"
         r="11.00815"
         cy="723.0307"
         cx="-1058.2007"
         id="circle4251"
         style="color:#000000;clip-rule:nonzero;display:inline;overflow:visible;visibility:visible;opacity:1;isolation:auto;mix-blend-mode:normal;color-interpolation:sRGB;color-interpolation-filters:linearRGB;solid-color:#000000;solid-opacity:1;fill:#000f9f;fill-opacity:1;fill-rule:nonzero;stroke:none;stroke-width:24;stroke-linecap:butt;stroke-linejoin:miter;stroke-miterlimit:4;stroke-dasharray:none;stroke-dashoffset:0;stroke-opacity:1;marker:none;color-rendering:auto;image-rendering:auto;shape-rendering:auto;text-rendering:auto;enable-background:accumulate" /><circle
         style="color:#000000;clip-rule:nonzero;display:inline;overflow:visible;visibility:visible;opacity:1;isolation:auto;mix-blend-mode:normal;color-interpolation:sRGB;color-interpolation-filters:linearRGB;solid-color:#000000;solid-opacity:1;fill:#000f9f;fill-opacity:1;fill-rule:nonzero;stroke:none;stroke-width:24;stroke-linecap:butt;stroke-linejoin:miter;stroke-miterlimit:4;stroke-dasharray:none;stroke-dashoffset:0;stroke-opacity:1;marker:none;color-rendering:auto;image-rendering:auto;shape-rendering:auto;text-rendering:auto;enable-background:accumulate"
         id="circle4253"
         cx="-1044.9286"
         cy="774.55933"
         r="11.00815"
         transform="scale(1,-1)" /><circle
         transform="scale(1,-1)"
         r="11.00815"
         cy="726.23413"
         cx="-1151.2227"
         id="circle4255"
         style="color:#000000;clip-rule:nonzero;display:inline;overflow:visible;visibility:visible;opacity:1;isolation:auto;mix-blend-mode:normal;color-interpolation:sRGB;color-interpolation-filters:linearRGB;solid-color:#000000;solid-opacity:1;fill:#000f9f;fill-opacity:1;fill-rule:nonzero;stroke:none;stroke-width:24;stroke-linecap:butt;stroke-linejoin:miter;stroke-miterlimit:4;stroke-dasharray:none;stroke-dashoffset:0;stroke-opacity:1;marker:none;color-rendering:auto;image-rendering:auto;shape-rendering:auto;text-rendering:auto;enable-background:accumulate" /></g><g
       id="g4388"
       inkscape:export-filename="/home/ana/Desktop/hamburguers/invasao-dos-hamburgueres.png"
       inkscape:export-xdpi="19.992455"
       inkscape:export-ydpi="19.992455"><g
         id="flowRoot4178"
         style="font-style:normal;font-weight:normal;font-size:40px;line-height:125%;font-family:sans-serif;letter-spacing:0px;word-spacing:0px;fill:#000f9f;fill-opacity:1;stroke:#000f9f;stroke-width:1px;stroke-linecap:butt;stroke-linejoin:miter;stroke-opacity:1"
         transform="matrix(4.0180222,0,0,-4.0180222,-1195.9698,-2267.1184)"><path
           inkscape:connector-curvature="0"
           id="path4342"
           style="font-style:normal;font-variant:normal;font-weight:bold;font-stretch:normal;font-family:'League Spartan';-inkscape-font-specification:'League Spartan Bold';fill:#000f9f;fill-opacity:1;stroke:#000f9f;stroke-opacity:1"
           d="m -101.88078,-479.48047 0,33 -7.52,0 0,-33 7.52,0 z" /><path
           inkscape:connector-curvature="0"
           id="path4344"
           style="font-style:normal;font-variant:normal;font-weight:bold;font-stretch:normal;font-family:'League Spartan';-inkscape-font-specification:'League Spartan Bold';fill:#000f9f;fill-opacity:1;stroke:#000f9f;stroke-opacity:1"
           d="m -97.057031,-446.48047 0,-20.52 7.08,0 0,2.16 0.08,0 q 2.76,-2.76 5.88,-2.76 1.52,0 3,0.4 1.52,0.4 2.88,1.24 1.4,0.84 2.24,2.4 0.88,1.52 0.88,3.56 l 0,13.52 -7.08,0 0,-11.6 q 0,-1.6 -1.04,-2.8 -1,-1.2 -2.64,-1.2 -1.6,0 -2.92,1.24 -1.28,1.24 -1.28,2.76 l 0,11.6 -7.08,0 z" /><path
           inkscape:connector-curvature="0"
           id="path4346"
           style="font-style:normal;font-variant:normal;font-weight:bold;font-stretch:normal;font-family:'League Spartan';-inkscape-font-specification:'League Spartan Bold';fill:#000f9f;fill-opacity:1;stroke:#000f9f;stroke-opacity:1"
           d="m -65.372656,-467.00047 5,11.16 5,-11.16 8.4,0 -11,20.52 -4.8,0 -11,-20.52 8.4,0 z" /><path
           inkscape:connector-curvature="0"
           id="path4348"
           style="font-style:normal;font-variant:normal;font-weight:bold;font-stretch:normal;font-family:'League Spartan';-inkscape-font-specification:'League Spartan Bold';fill:#000f9f;fill-opacity:1;stroke:#000f9f;stroke-opacity:1"
           d="m -44.250781,-449.00047 q -2.88,-3.16 -2.88,-7.72 0,-4.56 2.88,-7.72 2.88,-3.16 7.32,-3.16 4.08,0 6.72,2.56 l 0,-1.96 7.08,0 0,20.52 -7,0 0,-2.32 -0.08,0 q -2.64,2.92 -6.72,2.92 -4.44,0 -7.32,-3.12 z m 6,-11.2 q -1.36,1.36 -1.36,3.48 0,2.12 1.32,3.48 1.32,1.32 3.48,1.32 2.08,0 3.4,-1.36 1.36,-1.36 1.36,-3.44 0,-2.12 -1.4,-3.48 -1.36,-1.36 -3.36,-1.36 -2.04,0 -3.44,1.36 z" /><path
           inkscape:connector-curvature="0"
           id="path4350"
           style="font-style:normal;font-variant:normal;font-weight:bold;font-stretch:normal;font-family:'League Spartan';-inkscape-font-specification:'League Spartan Bold';fill:#000f9f;fill-opacity:1;stroke:#000f9f;stroke-opacity:1"
           d="m -9.5432813,-467.60047 q 1.7600001,0 3.4800001,0.4 1.72,0.4 2.5599999,0.8 l 0.84,0.4 -2.3199999,4.64 q -2.4,-1.28 -4.5600001,-1.28 -1.1999997,0 -1.7199997,0.28 -0.48,0.24 -0.48,0.96 0,0.16 0.04,0.32 0.04,0.16 0.16,0.32 0.12,0.12 0.2,0.24 0.12,0.08 0.36,0.2 0.24,0.12 0.36,0.2 0.16,0.04 0.48,0.16 0.3199998,0.12 0.4799998,0.2 0.16,0.04 0.5199999,0.16 0.4,0.12 0.6,0.16 1.2400001,0.36 2.1600001,0.8 0.92,0.44 1.92,1.2 1.04,0.76 1.5999999,1.92 0.5600001,1.16 0.5600001,2.64 0,7 -9.7199998,7 -2.2,0 -4.2,-0.68 -1.96,-0.68 -2.84,-1.36 l -0.88,-0.72 2.88,-4.84 q 0.32,0.28 0.84,0.68 0.52,0.36 1.88,1.04 1.36,0.64 2.36,0.64 2.1999998,0 2.1999998,-1.48 0,-0.68 -0.5599998,-1.04 -0.56,-0.4 -1.92,-0.88 -1.32,-0.48 -2.08,-0.88 -1.92,-1 -3.04,-2.24 -1.12,-1.28 -1.12,-3.36 0,-3.12 2.4,-4.84 2.44,-1.76 6.5599997,-1.76 z" /><path
           inkscape:connector-curvature="0"
           id="path4352"
           style="font-style:normal;font-variant:normal;font-weight:bold;font-stretch:normal;font-family:'League Spartan';-inkscape-font-specification:'League Spartan Bold';fill:#000f9f;fill-opacity:1;stroke:#000f9f;stroke-opacity:1"
           d="m 12.026094,-472.16047 q -1.6,-0.76 -3.0400002,-0.76 -0.56,0 -1.04,0.48 -0.4400001,0.44 -0.6000001,0.92 l -0.16,0.44 -4.0399999,0 q 0.04,-0.28 0.12,-0.72 0.12,-0.48 0.52,-1.64 0.44,-1.2 0.9599999,-2.12 0.5600001,-0.92 1.5600001,-1.64 1.0399999,-0.76 2.28,-0.76 0.68,0 1.7200002,0.28 1.04,0.24 1.72,0.52 l 0.72,0.28 q 1.6,0.76 3.04,0.76 0.56,0 1,-0.44 0.48,-0.48 0.64,-0.96 l 0.16,-0.44 4.04,0 q -0.04,0.28 -0.16,0.76 -0.08,0.44 -0.52,1.64 -0.4,1.16 -0.96,2.08 -0.52,0.92 -1.56,1.68 -1,0.72 -2.24,0.72 -0.68,0 -1.72,-0.24 -1.04,-0.28 -1.72,-0.56 l -0.72,-0.28 z m -9.4800003,7.72 q -2.87999995,3.16 -2.87999995,7.72 0,4.56 2.87999995,7.72 2.8800001,3.12 7.3200001,3.12 4.0800002,0 6.7200002,-2.92 l 0.08,0 0,2.32 7,0 0,-20.52 -7.08,0 0,1.96 q -2.64,-2.56 -6.7200002,-2.56 -4.44,0 -7.3200001,3.16 z m 5.9600001,11.2 q -1.3200001,-1.36 -1.3200001,-3.48 0,-2.12 1.3600001,-3.48 1.4,-1.36 3.4400002,-1.36 2,0 3.36,1.36 1.4,1.36 1.4,3.48 0,2.08 -1.36,3.44 -1.32,1.36 -3.4,1.36 -2.1600002,0 -3.4800002,-1.32 z" /><path
           inkscape:connector-curvature="0"
           id="path4354"
           style="font-style:normal;font-variant:normal;font-weight:bold;font-stretch:normal;font-family:'League Spartan';-inkscape-font-specification:'League Spartan Bold';fill:#000f9f;fill-opacity:1;stroke:#000f9f;stroke-opacity:1"
           d="m 30.409844,-448.92047 q -3.4,-3.04 -3.4,-7.8 0,-4.76 3.56,-7.8 3.56,-3.08 8.8,-3.08 5.16,0 8.68,3.08 3.56,3.08 3.56,7.8 0,4.72 -3.48,7.8 -3.44,3.04 -8.76,3.04 -5.52,0 -8.96,-3.04 z m 5.48,-11.28 q -1.36,1.36 -1.36,3.48 0,2.12 1.32,3.48 1.32,1.32 3.48,1.32 2.08,0 3.4,-1.36 1.36,-1.36 1.36,-3.44 0,-2.12 -1.4,-3.48 -1.36,-1.36 -3.36,-1.36 -2.04,0 -3.44,1.36 z" /><path
           inkscape:connector-curvature="0"
           id="path4356"
           style="font-style:normal;font-variant:normal;font-weight:bold;font-stretch:normal;font-family:'League Spartan';-inkscape-font-specification:'League Spartan Bold';fill:#000f9f;fill-opacity:1;stroke:#000f9f;stroke-opacity:1"
           d="m 67.311719,-449.00047 q -2.88,-3.16 -2.88,-7.72 0,-4.56 2.88,-7.72 2.88,-3.16 7.32,-3.16 4.08,0 6.72,2.56 l 0,-15.84 7.08,0 0,34.4 -7,0 0,-2.32 -0.08,0 q -2.64,2.92 -6.72,2.92 -4.44,0 -7.32,-3.12 z m 6,-11.2 q -1.36,1.36 -1.36,3.48 0,2.12 1.32,3.48 1.32,1.32 3.48,1.32 2.08,0 3.4,-1.36 1.36,-1.36 1.36,-3.44 0,-2.12 -1.4,-3.48 -1.36,-1.36 -3.36,-1.36 -2.04,0 -3.44,1.36 z" /><path
           inkscape:connector-curvature="0"
           id="path4358"
           style="font-style:normal;font-variant:normal;font-weight:bold;font-stretch:normal;font-family:'League Spartan';-inkscape-font-specification:'League Spartan Bold';fill:#000f9f;fill-opacity:1;stroke:#000f9f;stroke-opacity:1"
           d="m 95.175469,-448.92047 q -3.4,-3.04 -3.4,-7.8 0,-4.76 3.56,-7.8 3.56,-3.08 8.800001,-3.08 5.16,0 8.68,3.08 3.56,3.08 3.56,7.8 0,4.72 -3.48,7.8 -3.44,3.04 -8.76,3.04 -5.520001,0 -8.960001,-3.04 z m 5.480001,-11.28 q -1.360001,1.36 -1.360001,3.48 0,2.12 1.320001,3.48 1.32,1.32 3.48,1.32 2.08,0 3.4,-1.36 1.36,-1.36 1.36,-3.44 0,-2.12 -1.4,-3.48 -1.36,-1.36 -3.36,-1.36 -2.04,0 -3.44,1.36 z" /><path
           inkscape:connector-curvature="0"
           id="path4360"
           style="font-style:normal;font-variant:normal;font-weight:bold;font-stretch:normal;font-family:'League Spartan';-inkscape-font-specification:'League Spartan Bold';fill:#000f9f;fill-opacity:1;stroke:#000f9f;stroke-opacity:1"
           d="m 128.50359,-467.60047 q 1.76,0 3.48,0.4 1.72,0.4 2.56,0.8 l 0.84,0.4 -2.32,4.64 q -2.4,-1.28 -4.56,-1.28 -1.2,0 -1.72,0.28 -0.48,0.24 -0.48,0.96 0,0.16 0.04,0.32 0.04,0.16 0.16,0.32 0.12,0.12 0.2,0.24 0.12,0.08 0.36,0.2 0.24,0.12 0.36,0.2 0.16,0.04 0.48,0.16 0.32,0.12 0.48,0.2 0.16,0.04 0.52,0.16 0.4,0.12 0.6,0.16 1.24,0.36 2.16,0.8 0.92,0.44 1.92,1.2 1.04,0.76 1.6,1.92 0.56,1.16 0.56,2.64 0,7 -9.72,7 -2.2,0 -4.2,-0.68 -1.96,-0.68 -2.84,-1.36 l -0.88,-0.72 2.88,-4.84 q 0.32,0.28 0.84,0.68 0.52,0.36 1.88,1.04 1.36,0.64 2.36,0.64 2.2,0 2.2,-1.48 0,-0.68 -0.56,-1.04 -0.56,-0.4 -1.92,-0.88 -1.32,-0.48 -2.08,-0.88 -1.92,-1 -3.04,-2.24 -1.12,-1.28 -1.12,-3.36 0,-3.12 2.4,-4.84 2.44,-1.76 6.56,-1.76 z" /><path
           inkscape:connector-curvature="0"
           id="path4362"
           style="font-style:normal;font-variant:normal;font-weight:bold;font-stretch:normal;font-family:'League Spartan';-inkscape-font-specification:'League Spartan Bold';fill:#000f9f;fill-opacity:1;stroke:#000f9f;stroke-opacity:1"
           d="m 157.65047,-459.72047 0,13.24 -7.52,0 0,-33 7.52,0 0,13.16 10.64,0 0,-13.16 7.52,0 0,33 -7.52,0 0,-13.24 -10.64,0 z" /><path
           inkscape:connector-curvature="0"
           id="path4364"
           style="font-style:normal;font-variant:normal;font-weight:bold;font-stretch:normal;font-family:'League Spartan';-inkscape-font-specification:'League Spartan Bold';fill:#000f9f;fill-opacity:1;stroke:#000f9f;stroke-opacity:1"
           d="m 182.07734,-449.00047 q -2.88,-3.16 -2.88,-7.72 0,-4.56 2.88,-7.72 2.88,-3.16 7.32,-3.16 4.08,0 6.72,2.56 l 0,-1.96 7.08,0 0,20.52 -7,0 0,-2.32 -0.08,0 q -2.64,2.92 -6.72,2.92 -4.44,0 -7.32,-3.12 z m 6,-11.2 q -1.36,1.36 -1.36,3.48 0,2.12 1.32,3.48 1.32,1.32 3.48,1.32 2.08,0 3.4,-1.36 1.36,-1.36 1.36,-3.44 0,-2.12 -1.4,-3.48 -1.36,-1.36 -3.36,-1.36 -2.04,0 -3.44,1.36 z" /><path
           inkscape:connector-curvature="0"
           id="path4366"
           style="font-style:normal;font-variant:normal;font-weight:bold;font-stretch:normal;font-family:'League Spartan';-inkscape-font-specification:'League Spartan Bold';fill:#000f9f;fill-opacity:1;stroke:#000f9f;stroke-opacity:1"
           d="m 208.02109,-446.48047 0,-20.52 7.08,0 0,2.16 0.08,0 q 2.76,-2.76 5.88,-2.76 2.24,0 4.2,0.92 1.96,0.92 2.96,2.84 3.12,-3.76 6.8,-3.76 3.28,0 5.64,1.84 2.36,1.84 2.36,5.76 l 0,13.52 -7.08,0 0,-11.6 q 0,-1.64 -0.92,-2.72 -0.88,-1.12 -2.68,-1.12 -1.56,0 -2.4,0.96 -0.8,0.92 -0.88,2.24 l 0,12.24 -7.08,0 0,-11.6 q 0,-1.64 -0.92,-2.72 -0.88,-1.12 -2.68,-1.12 -1.64,0 -2.48,1.04 -0.8,1 -0.8,2.4 l 0,12 -7.08,0 z" /><path
           inkscape:connector-curvature="0"
           id="path4368"
           style="font-style:normal;font-variant:normal;font-weight:bold;font-stretch:normal;font-family:'League Spartan';-inkscape-font-specification:'League Spartan Bold';fill:#000f9f;fill-opacity:1;stroke:#000f9f;stroke-opacity:1"
           d="m 268.59422,-464.44047 q 2.88,3.16 2.88,7.72 0,4.56 -2.88,7.72 -2.88,3.12 -7.32,3.12 -4.08,0 -6.72,-2.92 l -0.08,0 0,2.32 -7,0 0,-34.4 7.08,0 0,15.84 q 2.64,-2.56 6.72,-2.56 4.44,0 7.32,3.16 z m -5.96,11.2 q 1.32,-1.36 1.32,-3.48 0,-2.12 -1.4,-3.48 -1.36,-1.36 -3.4,-1.36 -2,0 -3.4,1.36 -1.36,1.36 -1.36,3.48 0,2.08 1.32,3.44 1.36,1.36 3.44,1.36 2.16,0 3.48,-1.32 z" /><path
           inkscape:connector-curvature="0"
           id="path4370"
           style="font-style:normal;font-variant:normal;font-weight:bold;font-stretch:normal;font-family:'League Spartan';-inkscape-font-specification:'League Spartan Bold';fill:#000f9f;fill-opacity:1;stroke:#000f9f;stroke-opacity:1"
           d="m 283.17797,-473.04047 8.12,-7.04 3.64,4.6 -9.52,5.52 -2.24,-3.08 z m -8.76,6.04 0,11.48 q 0,5.12 2.64,7.4 2.68,2.24 8.48,2.24 5.8,0 8.44,-2.24 2.68,-2.28 2.68,-7.4 l 0,-11.48 -7.08,0 0,9.76 q 0,3.04 -0.92,4.32 -0.92,1.28 -3.12,1.28 -2.2,0 -3.12,-1.28 -0.92,-1.28 -0.92,-4.32 l 0,-9.76 -7.08,0 z" /><path
           inkscape:connector-curvature="0"
           id="path4372"
           style="font-style:normal;font-variant:normal;font-weight:bold;font-stretch:normal;font-family:'League Spartan';-inkscape-font-specification:'League Spartan Bold';fill:#000f9f;fill-opacity:1;stroke:#000f9f;stroke-opacity:1"
           d="m 301.14609,-446.48047 0,-20.52 7.08,0 0,2.96 0.08,0 q 0.08,-0.16 0.24,-0.4 0.2,-0.24 0.8,-0.84 0.6,-0.6 1.28,-1.08 0.68,-0.48 1.76,-0.84 1.08,-0.4 2.2,-0.4 1.16,0 2.28,0.32 1.12,0.32 1.64,0.64 l 0.56,0.32 -2.96,6 q -1.32,-1.12 -3.68,-1.12 -1.28,0 -2.2,0.56 -0.92,0.56 -1.32,1.36 -0.36,0.8 -0.52,1.36 -0.16,0.56 -0.16,0.88 l 0,10.8 -7.08,0 z" /><path
           inkscape:connector-curvature="0"
           id="path4374"
           style="font-style:normal;font-variant:normal;font-weight:bold;font-stretch:normal;font-family:'League Spartan';-inkscape-font-specification:'League Spartan Bold';fill:#000f9f;fill-opacity:1;stroke:#000f9f;stroke-opacity:1"
           d="m 319.91359,-441.44047 5.8,-2.84 q 1.6,2.64 5.56,2.64 1.84,0 3.4,-1.2 1.6,-1.16 1.6,-3.6 l 0,-1.52 q -1.88,2.08 -6.72,2.08 -4.44,0 -7.32,-3.12 -2.88,-3.16 -2.88,-7.72 0,-4.56 2.88,-7.72 2.88,-3.16 7.32,-3.16 3.96,0 6.6,2.44 l 0.12,0 0,-1.84 7.08,0 0,21.08 q 0,5 -3.32,7.72 -3.32,2.72 -8.76,2.72 -8.8,0 -11.36,-5.96 z m 8.32,-18.76 q -1.36,1.36 -1.36,3.48 0,2.12 1.32,3.48 1.32,1.32 3.48,1.32 2.08,0 3.4,-1.36 1.36,-1.36 1.36,-3.44 0,-2.12 -1.4,-3.48 -1.36,-1.36 -3.36,-1.36 -2.04,0 -3.44,1.36 z" /><path
           inkscape:connector-curvature="0"
           id="path4376"
           style="font-style:normal;font-variant:normal;font-weight:bold;font-stretch:normal;font-family:'League Spartan';-inkscape-font-specification:'League Spartan Bold';fill:#000f9f;fill-opacity:1;stroke:#000f9f;stroke-opacity:1"
           d="m 354.85734,-467.00047 0,9.76 q 0,3.04 0.92,4.32 0.92,1.28 3.12,1.28 2.2,0 3.12,-1.28 0.92,-1.28 0.92,-4.32 l 0,-9.76 7.08,0 0,11.48 q 0,5.12 -2.68,7.4 -2.64,2.24 -8.44,2.24 -5.8,0 -8.48,-2.24 -2.64,-2.28 -2.64,-7.4 l 0,-11.48 7.08,0 z" /><path
           inkscape:connector-curvature="0"
           id="path4378"
           style="font-style:normal;font-variant:normal;font-weight:bold;font-stretch:normal;font-family:'League Spartan';-inkscape-font-specification:'League Spartan Bold';fill:#000f9f;fill-opacity:1;stroke:#000f9f;stroke-opacity:1"
           d="m 395.26547,-455.76047 -14.88,0 q 0,2.16 1.4,3.2 1.4,1.04 3.04,1.04 1.72,0 2.72,-0.44 1,-0.48 2.28,-1.84 l 5.12,2.56 q -3.2,5.36 -10.64,5.36 -4.64,0 -7.96,-3.16 -3.32,-3.2 -3.32,-7.68 0,-4.48 3.32,-7.68 3.32,-3.2 7.96,-3.2 4.88,0 7.92,2.84 3.08,2.8 3.08,8.04 0,0.72 -0.04,0.96 z m -14.68,-3.92 7.8,0 q -0.24,-1.6 -1.28,-2.44 -1,-0.88 -2.6,-0.88 -1.76,0 -2.8,0.92 -1.04,0.92 -1.12,2.4 z" /><path
           inkscape:connector-curvature="0"
           id="path4380"
           style="font-style:normal;font-variant:normal;font-weight:bold;font-stretch:normal;font-family:'League Spartan';-inkscape-font-specification:'League Spartan Bold';fill:#000f9f;fill-opacity:1;stroke:#000f9f;stroke-opacity:1"
           d="m 398.56797,-446.48047 0,-20.52 7.08,0 0,2.96 0.08,0 q 0.08,-0.16 0.24,-0.4 0.2,-0.24 0.8,-0.84 0.6,-0.6 1.28,-1.08 0.68,-0.48 1.76,-0.84 1.08,-0.4 2.2,-0.4 1.16,0 2.28,0.32 1.12,0.32 1.64,0.64 l 0.56,0.32 -2.96,6 q -1.32,-1.12 -3.68,-1.12 -1.28,0 -2.2,0.56 -0.92,0.56 -1.32,1.36 -0.36,0.8 -0.52,1.36 -0.16,0.56 -0.16,0.88 l 0,10.8 -7.08,0 z" /><path
           inkscape:connector-curvature="0"
           id="path4382"
           style="font-style:normal;font-variant:normal;font-weight:bold;font-stretch:normal;font-family:'League Spartan';-inkscape-font-specification:'League Spartan Bold';fill:#000f9f;fill-opacity:1;stroke:#000f9f;stroke-opacity:1"
           d="m 439.09359,-455.76047 -14.88,0 q 0,2.16 1.4,3.2 1.4,1.04 3.04,1.04 1.72,0 2.72,-0.44 1,-0.48 2.28,-1.84 l 5.12,2.56 q -3.2,5.36 -10.64,5.36 -4.64,0 -7.96,-3.16 -3.32,-3.2 -3.32,-7.68 0,-4.48 3.32,-7.68 3.32,-3.2 7.96,-3.2 4.88,0 7.92,2.84 3.08,2.8 3.08,8.04 0,0.72 -0.04,0.96 z m -14.68,-3.92 7.8,0 q -0.24,-1.6 -1.28,-2.44 -1,-0.88 -2.6,-0.88 -1.76,0 -2.8,0.92 -1.04,0.92 -1.12,2.4 z" /><path
           inkscape:connector-curvature="0"
           id="path4384"
           style="font-style:normal;font-variant:normal;font-weight:bold;font-stretch:normal;font-family:'League Spartan';-inkscape-font-specification:'League Spartan Bold';fill:#000f9f;fill-opacity:1;stroke:#000f9f;stroke-opacity:1"
           d="m 451.23797,-467.60047 q 1.76,0 3.48,0.4 1.72,0.4 2.56,0.8 l 0.84,0.4 -2.32,4.64 q -2.4,-1.28 -4.56,-1.28 -1.2,0 -1.72,0.28 -0.48,0.24 -0.48,0.96 0,0.16 0.04,0.32 0.04,0.16 0.16,0.32 0.12,0.12 0.2,0.24 0.12,0.08 0.36,0.2 0.24,0.12 0.36,0.2 0.16,0.04 0.48,0.16 0.32,0.12 0.48,0.2 0.16,0.04 0.52,0.16 0.4,0.12 0.6,0.16 1.24,0.36 2.16,0.8 0.92,0.44 1.92,1.2 1.04,0.76 1.6,1.92 0.56,1.16 0.56,2.64 0,7 -9.72,7 -2.2,0 -4.2,-0.68 -1.96,-0.68 -2.84,-1.36 l -0.88,-0.72 2.88,-4.84 q 0.32,0.28 0.84,0.68 0.52,0.36 1.88,1.04 1.36,0.64 2.36,0.64 2.2,0 2.2,-1.48 0,-0.68 -0.56,-1.04 -0.56,-0.4 -1.92,-0.88 -1.32,-0.48 -2.08,-0.88 -1.92,-1 -3.04,-2.24 -1.12,-1.28 -1.12,-3.36 0,-3.12 2.4,-4.84 2.44,-1.76 6.56,-1.76 z" /><path
           inkscape:connector-curvature="0"
           id="path4386"
           style="font-style:normal;font-variant:normal;font-weight:bold;font-stretch:normal;font-family:'League Spartan';-inkscape-font-specification:'League Spartan Bold';fill:#000f9f;fill-opacity:1;stroke:#000f9f;stroke-opacity:1"
           d="m 466.48734,-455.04047 q 1.92,0 3.24,1.36 1.36,1.32 1.36,3.24 0,1.88 -1.36,3.24 -1.32,1.32 -3.24,1.32 -1.88,0 -3.24,-1.32 -1.32,-1.36 -1.32,-3.24 0,-1.92 1.32,-3.24 1.36,-1.36 3.24,-1.36 z" /></g><path
         sodipodi:nodetypes="cccccccccc"
         d="m -1713.201,-571.75034 2491.733,0 0,330.949 -2491.733,0 z m 2511.202,-19.468 -2530.671,0 0,369.885 2530.671,0 z"
         style="fill:#000f9f;fill-opacity:1;fill-rule:nonzero;stroke:none"
         id="path4165"
         inkscape:connector-curvature="0" /><path
         d="m 798.001,-571.75034 330.949,0 0,330.949 -330.949,0 0,-330.949 z m 350.416,-19.468 -369.885,0 0,369.885 369.885,0 0,-369.885 z"
         style="fill:#000f9f;fill-opacity:1;fill-rule:nonzero;stroke:none"
         id="path4191"
         inkscape:connector-curvature="0" /><g
         transform="matrix(1.0071356,0,0,1.0071356,2060.5957,405.69302)"
         id="g4277"><path
           sodipodi:nodetypes="ccccccccc"
           style="color:#000000;clip-rule:nonzero;display:inline;overflow:visible;visibility:visible;opacity:1;isolation:auto;mix-blend-mode:normal;color-interpolation:sRGB;color-interpolation-filters:linearRGB;solid-color:#000000;solid-opacity:1;fill:none;fill-opacity:1;fill-rule:nonzero;stroke:#000f9f;stroke-width:23.82995987;stroke-linecap:butt;stroke-linejoin:miter;stroke-miterlimit:4;stroke-dasharray:none;stroke-dashoffset:0;stroke-opacity:1;marker:none;color-rendering:auto;image-rendering:auto;shape-rendering:auto;text-rendering:auto;enable-background:accumulate"
           d="m -1265.9371,-852.1187 44.1472,32 44.1473,-32 44.1473,32 44.1472,-32 44.1473,32 44.1473,-32 44.14721,32 44.14727,-32"
           id="path4279"
           inkscape:connector-curvature="0" /><path
           style="color:#000000;clip-rule:nonzero;display:inline;overflow:visible;visibility:visible;opacity:1;isolation:auto;mix-blend-mode:normal;color-interpolation:sRGB;color-interpolation-filters:linearRGB;solid-color:#000000;solid-opacity:1;fill:none;fill-opacity:1;fill-rule:nonzero;stroke:#000f9f;stroke-width:23.82995987;stroke-linecap:butt;stroke-linejoin:miter;stroke-miterlimit:4;stroke-dasharray:none;stroke-dashoffset:0;stroke-opacity:1;marker:none;color-rendering:auto;image-rendering:auto;shape-rendering:auto;text-rendering:auto;enable-background:accumulate"
           d="m -1214.54,-812.49191 c 0,69.14161 56.0503,125.19196 125.1919,125.19196 69.1416,0 125.19198,-56.05035 125.19198,-125.19196 z"
           id="path4281"
           inkscape:connector-curvature="0"
           sodipodi:nodetypes="cscc" /><path
           style="color:#000000;clip-rule:nonzero;display:inline;overflow:visible;visibility:visible;opacity:1;isolation:auto;mix-blend-mode:normal;color-interpolation:sRGB;color-interpolation-filters:linearRGB;solid-color:#000000;solid-opacity:1;fill:none;fill-opacity:1;fill-rule:nonzero;stroke:#000f9f;stroke-width:23.82995987;stroke-linecap:butt;stroke-linejoin:miter;stroke-miterlimit:4;stroke-dasharray:none;stroke-dashoffset:0;stroke-opacity:1;marker:none;color-rendering:auto;image-rendering:auto;shape-rendering:auto;text-rendering:auto;enable-background:accumulate"
           d="m -964.15611,-904.54555 0,-22.93365 c 0,-27.95153 -22.50249,-50.45402 -50.45399,-50.45402 l -149.8429,0 c -27.9515,0 -50.454,22.50249 -50.454,50.45402 l 0,22.93365 z"
           id="path4283"
           inkscape:connector-curvature="0"
           sodipodi:nodetypes="csssscc" /><path
           style="color:#000000;clip-rule:nonzero;display:inline;overflow:visible;visibility:visible;opacity:1;isolation:auto;mix-blend-mode:normal;color-interpolation:sRGB;color-interpolation-filters:linearRGB;solid-color:#000000;solid-opacity:1;fill:none;fill-opacity:1;fill-rule:nonzero;stroke:#000f9f;stroke-width:23.82995987;stroke-linecap:butt;stroke-linejoin:miter;stroke-miterlimit:4;stroke-dasharray:none;stroke-dashoffset:0;stroke-opacity:1;marker:none;color-rendering:auto;image-rendering:auto;shape-rendering:auto;text-rendering:auto;enable-background:accumulate"
           d="m -1226.7235,-866.89177 274.75086,0"
           id="path4285"
           inkscape:connector-curvature="0" /><circle
           transform="scale(1,-1)"
           r="11.00815"
           cy="751.9953"
           cx="-1153.1307"
           id="circle4287"
           style="color:#000000;clip-rule:nonzero;display:inline;overflow:visible;visibility:visible;opacity:1;isolation:auto;mix-blend-mode:normal;color-interpolation:sRGB;color-interpolation-filters:linearRGB;solid-color:#000000;solid-opacity:1;fill:#000f9f;fill-opacity:1;fill-rule:nonzero;stroke:none;stroke-width:24;stroke-linecap:butt;stroke-linejoin:miter;stroke-miterlimit:4;stroke-dasharray:none;stroke-dashoffset:0;stroke-opacity:1;marker:none;color-rendering:auto;image-rendering:auto;shape-rendering:auto;text-rendering:auto;enable-background:accumulate" /><circle
           style="color:#000000;clip-rule:nonzero;display:inline;overflow:visible;visibility:visible;opacity:1;isolation:auto;mix-blend-mode:normal;color-interpolation:sRGB;color-interpolation-filters:linearRGB;solid-color:#000000;solid-opacity:1;fill:#000f9f;fill-opacity:1;fill-rule:nonzero;stroke:none;stroke-width:24;stroke-linecap:butt;stroke-linejoin:miter;stroke-miterlimit:4;stroke-dasharray:none;stroke-dashoffset:0;stroke-opacity:1;marker:none;color-rendering:auto;image-rendering:auto;shape-rendering:auto;text-rendering:auto;enable-background:accumulate"
           id="circle4289"
           cx="-1099.3845"
           cy="753.59668"
           r="11.00815"
           transform="scale(1,-1)" /><circle
           transform="scale(1,-1)"
           r="11.00815"
           cy="747.67535"
           cx="-1068.9799"
           id="circle4291"
           style="color:#000000;clip-rule:nonzero;display:inline;overflow:visible;visibility:visible;opacity:1;isolation:auto;mix-blend-mode:normal;color-interpolation:sRGB;color-interpolation-filters:linearRGB;solid-color:#000000;solid-opacity:1;fill:#000f9f;fill-opacity:1;fill-rule:nonzero;stroke:none;stroke-width:24;stroke-linecap:butt;stroke-linejoin:miter;stroke-miterlimit:4;stroke-dasharray:none;stroke-dashoffset:0;stroke-opacity:1;marker:none;color-rendering:auto;image-rendering:auto;shape-rendering:auto;text-rendering:auto;enable-background:accumulate" /><circle
           style="color:#000000;clip-rule:nonzero;display:inline;overflow:visible;visibility:visible;opacity:1;isolation:auto;mix-blend-mode:normal;color-interpolation:sRGB;color-interpolation-filters:linearRGB;solid-color:#000000;solid-opacity:1;fill:#000f9f;fill-opacity:1;fill-rule:nonzero;stroke:none;stroke-width:24;stroke-linecap:butt;stroke-linejoin:miter;stroke-miterlimit:4;stroke-dasharray:none;stroke-dashoffset:0;stroke-opacity:1;marker:none;color-rendering:auto;image-rendering:auto;shape-rendering:auto;text-rendering:auto;enable-background:accumulate"
           id="circle4293"
           cx="-1102.3448"
           cy="715.64612"
           r="11.00815"
           transform="scale(1,-1)" /><circle
           transform="scale(1,-1)"
           r="11.00815"
           cy="742.29761"
           cx="-1008.962"
           id="circle4295"
           style="color:#000000;clip-rule:nonzero;display:inline;overflow:visible;visibility:visible;opacity:1;isolation:auto;mix-blend-mode:normal;color-interpolation:sRGB;color-interpolation-filters:linearRGB;solid-color:#000000;solid-opacity:1;fill:#000f9f;fill-opacity:1;fill-rule:nonzero;stroke:none;stroke-width:24;stroke-linecap:butt;stroke-linejoin:miter;stroke-miterlimit:4;stroke-dasharray:none;stroke-dashoffset:0;stroke-opacity:1;marker:none;color-rendering:auto;image-rendering:auto;shape-rendering:auto;text-rendering:auto;enable-background:accumulate" /><circle
           transform="scale(1,-1)"
           r="11.00815"
           cy="723.0307"
           cx="-1058.2007"
           id="circle4297"
           style="color:#000000;clip-rule:nonzero;display:inline;overflow:visible;visibility:visible;opacity:1;isolation:auto;mix-blend-mode:normal;color-interpolation:sRGB;color-interpolation-filters:linearRGB;solid-color:#000000;solid-opacity:1;fill:#000f9f;fill-opacity:1;fill-rule:nonzero;stroke:none;stroke-width:24;stroke-linecap:butt;stroke-linejoin:miter;stroke-miterlimit:4;stroke-dasharray:none;stroke-dashoffset:0;stroke-opacity:1;marker:none;color-rendering:auto;image-rendering:auto;shape-rendering:auto;text-rendering:auto;enable-background:accumulate" /><circle
           style="color:#000000;clip-rule:nonzero;display:inline;overflow:visible;visibility:visible;opacity:1;isolation:auto;mix-blend-mode:normal;color-interpolation:sRGB;color-interpolation-filters:linearRGB;solid-color:#000000;solid-opacity:1;fill:#000f9f;fill-opacity:1;fill-rule:nonzero;stroke:none;stroke-width:24;stroke-linecap:butt;stroke-linejoin:miter;stroke-miterlimit:4;stroke-dasharray:none;stroke-dashoffset:0;stroke-opacity:1;marker:none;color-rendering:auto;image-rendering:auto;shape-rendering:auto;text-rendering:auto;enable-background:accumulate"
           id="circle4299"
           cx="-1044.9286"
           cy="774.55933"
           r="11.00815"
           transform="scale(1,-1)" /><circle
           transform="scale(1,-1)"
           r="11.00815"
           cy="726.23413"
           cx="-1151.2227"
           id="circle4301"
           style="color:#000000;clip-rule:nonzero;display:inline;overflow:visible;visibility:visible;opacity:1;isolation:auto;mix-blend-mode:normal;color-interpolation:sRGB;color-interpolation-filters:linearRGB;solid-color:#000000;solid-opacity:1;fill:#000f9f;fill-opacity:1;fill-rule:nonzero;stroke:none;stroke-width:24;stroke-linecap:butt;stroke-linejoin:miter;stroke-miterlimit:4;stroke-dasharray:none;stroke-dashoffset:0;stroke-opacity:1;marker:none;color-rendering:auto;image-rendering:auto;shape-rendering:auto;text-rendering:auto;enable-background:accumulate" /></g></g><flowRoot
       transform="matrix(4.0180222,0,0,-4.0180222,-1099.2861,-2811.1184)"
       style="font-style:normal;font-weight:normal;font-size:40px;line-height:125%;font-family:sans-serif;letter-spacing:0px;word-spacing:0px;fill:#000f9f;fill-opacity:1;stroke:#000f9f;stroke-width:1px;stroke-linecap:butt;stroke-linejoin:miter;stroke-opacity:1"
       id="flowRoot4325"
       xml:space="preserve"><flowRegion
         id="flowRegion4327"><rect
           style="fill:#000f9f;fill-opacity:1;stroke:#000f9f;stroke-opacity:1"
           y="-482.48108"
           x="-111.80152"
           height="452.93948"
           width="1636.8889"
           id="rect4329" /></flowRegion><flowPara
         style="font-style:normal;font-variant:normal;font-weight:bold;font-stretch:normal;font-family:'League Spartan';-inkscape-font-specification:'League Spartan Bold';fill:#000f9f;fill-opacity:1;stroke:#000f9f;stroke-opacity:1"
         id="flowPara4331">Invasão dos Hambúrguers.</flowPara></flowRoot></g></svg>